<svg width="791" height="810" viewBox="0 0 791 810" fill="none" xmlns="http://www.w3.org/2000/svg">
<path d="M395.299 41.4886C395.904 41.4905 396.509 41.4923 397.133 41.4941C397.828 41.4947 398.524 41.4952 399.24 41.4958C400.014 41.4997 400.788 41.5035 401.585 41.5075C402.399 41.5091 403.214 41.5107 404.053 41.5123C406.326 41.5168 408.598 41.5253 410.871 41.5345C413.318 41.5436 415.765 41.5492 418.213 41.5552C423.016 41.5675 427.82 41.5833 432.623 41.6003C436.535 41.614 440.447 41.6265 444.359 41.6381C444.915 41.6398 445.471 41.6414 446.045 41.6431C447.175 41.6465 448.306 41.6498 449.437 41.6532C460.061 41.6847 470.684 41.7201 481.308 41.7568C490.394 41.7882 499.479 41.8164 508.565 41.8422C519.125 41.8722 529.685 41.9042 540.246 41.9391C541.377 41.9428 542.509 41.9466 543.64 41.9503C544.197 41.9521 544.753 41.954 545.327 41.9559C549.218 41.9686 553.11 41.98 557.002 41.9909C561.768 42.0043 566.534 42.0199 571.3 42.0379C573.725 42.0471 576.15 42.0554 578.574 42.0611C608.976 42.1349 608.976 42.1349 622.46 43.6893C623.214 43.7727 623.968 43.856 624.745 43.9418C626.934 44.1886 629.12 44.4471 631.306 44.7129C631.908 44.7859 632.51 44.859 633.131 44.9343C642.217 46.0695 651.162 47.8431 660.115 49.7517C660.606 49.853 661.096 49.9543 661.602 50.0587C692.24 56.4105 723.601 72.151 741.376 98.9223C750.014 112.369 755.326 127.166 757.816 142.971C758.009 144.18 758.009 144.18 758.205 145.414C761.927 172.176 758.694 201.561 745.917 225.483C745.71 225.875 745.504 226.268 745.292 226.672C742.477 232.007 739.25 236.7 735.27 241.229C734.797 241.774 734.324 242.319 733.836 242.88C732.455 244.449 731.05 245.992 729.633 247.528C729.265 247.939 728.897 248.351 728.518 248.775C722.318 255.406 714.303 260.724 706.461 265.164C706.029 265.409 705.597 265.654 705.153 265.906C677.047 281.691 644.411 287.505 612.601 289.485C611.939 289.526 611.276 289.568 610.594 289.61C592.932 290.677 575.265 290.581 557.58 290.494C553.036 290.473 548.491 290.463 543.947 290.453C534.654 290.434 525.362 290.401 516.069 290.358C516.07 290.99 516.07 291.622 516.07 292.273C516.075 318.95 516.061 345.626 515.987 372.302C515.965 380.315 515.949 388.327 515.947 396.34C515.945 403.409 515.932 410.477 515.906 417.546C515.893 421.265 515.885 424.983 515.89 428.702C515.895 432.182 515.885 435.661 515.864 439.141C515.859 440.412 515.859 441.682 515.865 442.953C515.894 449.885 515.659 455.433 512.312 461.68C511.843 462.731 511.38 463.784 510.927 464.842C510.476 465.849 510.025 466.855 509.572 467.861C509.354 468.348 509.136 468.836 508.911 469.338C505.845 476.172 502.656 482.949 499.485 489.735C491.129 507.59 491.129 507.59 483.134 525.61C481.826 528.636 480.456 531.629 479.059 534.615C477.278 538.425 475.536 542.253 473.795 546.082C471.551 551.013 469.3 555.942 467.009 560.851C466.269 562.438 465.535 564.027 464.807 565.62C461.832 572.091 458.607 578.406 455.26 584.691C454.852 585.463 454.456 586.241 454.067 587.022C450.347 587.022 446.627 587.022 442.794 587.022C442.794 413.672 442.794 240.322 442.794 61.7191C442.38 61.7191 441.967 61.7191 441.541 61.7191C441.541 61.0955 441.541 60.472 441.541 59.8295C440.859 59.7935 440.859 59.7935 440.163 59.7568C433.234 59.3283 426.368 58.4699 419.482 57.6067C417.434 57.35 415.385 57.0966 413.336 56.8438C406.653 56.0155 399.977 55.1644 393.317 54.1608C393.299 52.1793 393.288 50.1979 393.278 48.2165C393.273 47.651 393.268 47.0854 393.262 46.5028C393.26 45.9649 393.258 45.427 393.256 44.8728C393.251 44.1257 393.251 44.1257 393.246 43.3635C393.35 41.6481 393.596 41.5828 395.299 41.4886ZM515.443 56.0503C515.381 57.2213 515.363 58.3946 515.363 59.5672C515.361 60.3356 515.358 61.104 515.356 61.8957C515.357 62.7594 515.358 63.6231 515.359 64.4868C515.358 65.3957 515.357 66.3047 515.355 67.2137C515.351 69.7233 515.351 72.2329 515.352 74.7426C515.352 77.4445 515.349 80.1465 515.346 82.8484C515.341 88.1464 515.339 93.4444 515.338 98.7424C515.338 103.047 515.337 107.351 515.335 111.655C515.329 123.844 515.326 136.033 515.327 148.222C515.327 149.209 515.327 149.209 515.327 150.216C515.327 150.874 515.327 151.533 515.327 152.211C515.327 162.89 515.321 173.568 515.313 184.247C515.304 195.198 515.299 206.149 515.3 217.1C515.3 223.254 515.298 229.407 515.292 235.561C515.286 240.799 515.284 246.038 515.289 251.277C515.291 253.952 515.291 256.627 515.285 259.302C515.28 261.748 515.281 264.193 515.287 266.639C515.288 267.527 515.287 268.415 515.283 269.303C515.279 270.504 515.283 271.705 515.287 272.905C515.287 273.574 515.287 274.243 515.287 274.932C515.288 276.611 515.288 276.611 516.696 277.761C518.628 277.883 520.503 277.926 522.436 277.914C523.032 277.915 523.628 277.917 524.242 277.918C526.226 277.92 528.209 277.913 530.193 277.906C531.578 277.906 532.962 277.905 534.347 277.905C537.263 277.904 540.178 277.899 543.093 277.891C546.793 277.88 550.493 277.878 554.193 277.878C557.062 277.878 559.931 277.874 562.8 277.87C564.161 277.868 565.522 277.867 566.884 277.866C578.523 277.858 590.196 277.841 601.714 275.99C602.43 275.878 603.145 275.766 603.883 275.651C624.836 272.283 643.602 265.079 659.489 250.677C659.944 250.272 660.4 249.867 660.869 249.449C677.732 233.559 684.529 208.906 685.793 186.431C685.875 183.328 685.881 180.228 685.876 177.124C685.877 176.253 685.877 175.382 685.878 174.511C685.879 172.699 685.878 170.887 685.875 169.075C685.871 166.78 685.873 164.484 685.877 162.188C685.879 160.393 685.878 158.599 685.877 156.804C685.876 155.554 685.878 154.305 685.88 153.055C685.861 145.567 685.531 138.163 684.071 130.807C683.96 130.245 683.85 129.683 683.736 129.104C679.276 107.131 668.862 87.1434 650.056 74.3163C634.809 64.248 618.022 58.956 599.992 56.6802C599.221 56.5772 598.45 56.4743 597.656 56.3682C588.836 55.2651 580.074 55.2474 571.197 55.2753C569.601 55.2761 568.005 55.2764 566.408 55.2762C563.091 55.2772 559.775 55.2822 556.458 55.2909C552.623 55.3008 548.788 55.3041 544.953 55.3036C541.245 55.3032 537.536 55.3065 533.828 55.3117C532.256 55.3137 530.683 55.3149 529.11 55.3154C526.928 55.3167 524.745 55.3222 522.563 55.329C521.911 55.3287 521.258 55.3284 520.586 55.3281C519.996 55.3308 519.406 55.3335 518.799 55.3363C518.284 55.3373 517.769 55.3384 517.238 55.3395C516.06 55.2919 516.06 55.2919 515.443 56.0503Z" fill="white"/>
<path d="M228.974 39.5632C229.727 39.5638 229.727 39.5638 230.495 39.5644C257.563 39.6195 290.901 41.0996 315.637 53.5383C318.426 53.7296 320.415 53.3132 322.994 52.2662C323.689 51.9888 324.384 51.7114 325.101 51.4255C325.846 51.1224 326.592 50.8193 327.36 50.507C328.15 50.1952 328.94 49.8845 329.73 49.575C333.069 48.2676 336.404 46.9538 339.725 45.6016C341.765 44.7723 343.812 43.9673 345.866 43.1758C347 42.7318 348.124 42.2635 349.247 41.794C356.788 38.9148 361.109 39.6813 370.124 39.6813C370.124 72.5222 370.124 105.363 370.124 139.199C365.784 139.199 361.443 139.199 356.972 139.199C353.175 134.327 353.175 134.327 352.189 131.86C350.563 128.052 348.529 124.524 346.481 120.933C345.727 119.578 344.974 118.221 344.223 116.864C341.993 112.838 339.757 108.815 337.518 104.793C337.155 104.143 336.793 103.492 336.42 102.822C334.642 99.6304 332.862 96.4407 331.076 93.2539C330.736 92.6466 330.396 92.0392 330.045 91.4135C329.37 90.2127 328.691 89.0137 328.01 87.8164C326.313 84.8328 324.673 81.8365 323.116 78.7769C322.799 78.1743 322.483 77.5716 322.157 76.9507C321.564 75.8191 320.988 74.6783 320.434 73.5271C317.973 68.9096 314.817 67.7192 310 66.1354C308.958 65.7561 308.958 65.7561 307.896 65.369C265.581 50.0174 213.01 43.9959 170.844 62.9742C162.248 67.0631 154.64 72.7634 147.792 79.3625C147.349 79.7758 146.906 80.1891 146.449 80.6148C143.266 83.6694 140.786 86.9923 138.398 90.7C138.076 91.1847 137.753 91.6694 137.422 92.1688C128.327 106.494 125.634 125.172 129.018 141.689C132.182 155.617 141.221 166.097 153.032 173.616C171.872 185.255 193.507 190.619 214.847 195.496C217.311 196.061 219.772 196.632 222.234 197.203C226.895 198.283 231.557 199.357 236.221 200.428C241.959 201.747 247.695 203.072 253.431 204.398C254.965 204.753 256.499 205.107 258.032 205.462C259.043 205.695 260.055 205.929 261.066 206.163C264.047 206.852 267.029 207.54 270.011 208.229C291.066 213.089 291.066 213.089 300.316 215.281C301.269 215.506 302.222 215.732 303.174 215.956C325.074 221.117 347.367 229.25 364.487 244.386C365.027 244.853 365.567 245.32 366.124 245.801C385.429 262.8 393.182 287.941 395.175 313.041C395.228 313.704 395.228 313.704 395.282 314.381C397.511 343.948 394.161 375.782 374.508 399.331C373.922 400.055 373.337 400.778 372.751 401.501C351.127 427.873 317.984 440.711 284.949 444.681C284.409 444.747 283.87 444.813 283.314 444.881C245.149 449.308 204.303 443.736 169.612 426.787C168.515 426.253 168.515 426.253 167.395 425.707C166 425.016 164.614 424.307 163.237 423.578C162.608 423.263 161.979 422.948 161.331 422.624C160.785 422.337 160.24 422.051 159.679 421.756C155.312 420.868 150.563 423.905 146.652 425.709C145.888 426.058 145.888 426.058 145.109 426.413C144.028 426.906 142.947 427.4 141.867 427.896C140.179 428.668 138.488 429.435 136.796 430.199C132.075 432.335 127.36 434.474 122.694 436.729C114.939 440.428 109.572 441.641 100.82 441.532C94.2069 441.532 87.5933 441.532 80.7793 441.532C80.7793 399.961 80.7793 358.391 80.7793 315.56C87.3929 315.56 94.0065 315.56 100.82 315.56C103.843 315.287 103.843 315.287 106.927 315.009C109.379 315.199 110.793 315.447 112.48 317.306C114.784 320.625 116.404 324.265 118.034 327.952C119.668 331.559 121.534 335.043 123.367 338.55C124.114 340.005 124.86 341.459 125.605 342.915C127.482 346.555 129.42 350.156 131.391 353.745C134.815 359.986 138.052 366.317 141.281 372.661C144.413 378.812 147.584 384.935 150.955 390.958C152.311 393.396 153.567 395.789 154.583 398.392C157.466 405.619 161.698 408.384 168.578 411.708C170.417 412.596 172.23 413.527 174.045 414.463C194.511 424.852 216.445 431.033 239.23 433.344C239.926 433.414 240.622 433.485 241.339 433.558C277.972 436.607 318.696 430.763 347.577 406.26C347.992 405.935 348.406 405.61 348.832 405.276C362.081 394.509 369.439 376.515 371.412 359.903C371.659 357.512 371.851 355.121 372.003 352.722C372.041 352.136 372.078 351.551 372.118 350.948C372.552 335.743 367.817 320.583 357.598 309.261C357.129 308.739 356.66 308.216 356.177 307.677C352.282 303.551 347.965 300.304 343.193 297.294C342.841 297.068 342.488 296.842 342.124 296.609C324.571 285.515 303.901 280.611 283.933 275.945C283.314 275.8 282.694 275.654 282.055 275.504C271.215 272.961 260.36 270.485 249.501 268.024C247.842 267.648 246.182 267.271 244.522 266.894C242.428 266.418 240.333 265.943 238.238 265.468C237.821 265.373 237.404 265.279 236.975 265.181C232.285 264.117 227.595 263.055 222.903 261.998C219.081 261.137 215.259 260.271 211.439 259.401C209.449 258.947 207.459 258.497 205.468 258.051C176.406 251.537 149.025 242.036 127.125 221.081C126.689 220.683 126.253 220.285 125.803 219.875C114.423 209.139 106.828 194.079 102.817 179.077C102.695 178.622 102.573 178.167 102.447 177.697C100.4 169.532 99.9596 161.429 99.9985 153.056C99.9996 152.545 100.001 152.033 100.002 151.506C100.116 121.214 110.364 94.2152 131.509 72.434C133.113 70.8703 134.777 69.4315 136.519 68.025C137.109 67.5411 137.699 67.0572 138.307 66.5586C163.99 45.8585 196.789 39.5176 228.974 39.5632Z" fill="white"/>
<path d="M588.923 353.287C589.797 353.291 590.67 353.299 591.544 353.309C592.211 353.314 592.211 353.314 592.893 353.318C593.996 353.325 595.099 353.337 596.202 353.349C597.974 357.247 599.572 361.185 601.07 365.198C601.405 366.088 601.405 366.088 601.746 366.997C602.23 368.283 602.712 369.569 603.195 370.855C604.508 374.357 605.827 377.858 607.147 381.358C607.424 382.094 607.702 382.83 607.988 383.589C611.281 392.313 614.621 401.017 617.965 409.721C618.4 410.854 618.4 410.854 618.844 412.009C622.256 420.898 622.256 420.898 625.691 429.778C625.89 430.291 626.089 430.803 626.294 431.332C626.651 432.251 627.009 433.17 627.368 434.088C628.845 437.888 630.18 441.731 631.491 445.591C632.469 448.374 633.575 451.102 634.673 453.838C636.816 459.204 638.833 464.619 640.866 470.028C645.71 482.907 650.608 495.765 655.542 508.609C655.832 509.364 656.122 510.12 656.421 510.898C659.833 519.786 659.833 519.786 663.268 528.666C663.467 529.179 663.666 529.691 663.871 530.22C664.228 531.139 664.586 532.058 664.945 532.976C666.12 535.998 667.206 539.045 668.264 542.11C669.506 545.695 670.828 549.228 672.251 552.746C673.814 556.631 675.286 560.549 676.758 564.47C680.066 573.274 683.418 582.061 686.778 590.845C687.046 591.545 687.314 592.245 687.589 592.966C690.49 600.551 693.397 608.133 696.319 615.71C696.802 616.961 697.284 618.213 697.766 619.464C698.657 621.775 699.549 624.085 700.443 626.394C702.466 631.634 704.42 636.886 706.257 642.195C707.991 647.177 709.893 652.092 711.797 657.011C712.722 659.401 713.644 661.792 714.565 664.184C715.058 665.461 715.55 666.738 716.043 668.016C719.173 676.135 722.276 684.265 725.381 692.394C728.205 699.787 731.034 707.178 733.882 714.561C734.366 715.818 734.851 717.075 735.335 718.332C736.229 720.65 737.124 722.968 738.021 725.285C740.277 731.127 742.44 736.989 744.481 742.91C745.414 745.624 745.414 745.624 746.51 748.271C747.772 748.881 747.772 748.881 749.289 749.019C749.78 749.093 750.27 749.167 750.774 749.243C751.434 749.338 752.094 749.433 752.773 749.531C755.047 749.946 757.32 750.362 759.662 750.79C759.662 756.402 759.662 762.014 759.662 767.797C718.534 767.797 677.406 767.797 635.031 767.797C635.031 764.055 635.031 760.314 635.031 756.459C645.139 754.852 655.248 753.262 665.37 751.749C666.304 751.609 667.238 751.468 668.171 751.327C669.483 751.129 670.795 750.933 672.107 750.739C673.229 750.571 673.229 750.571 674.374 750.4C676.109 750.191 677.753 750.112 679.498 750.16C679.344 749.776 679.19 749.391 679.032 748.995C675.702 740.653 672.399 732.3 669.137 723.93C667.459 719.626 665.776 715.324 664.085 711.026C658.876 697.781 653.681 684.53 648.641 671.219C647.164 667.325 645.626 663.466 644.02 659.624C642.488 655.912 641.026 652.171 639.561 648.432C639.022 647.055 638.48 645.679 637.938 644.303C637.587 643.409 637.236 642.515 636.886 641.62C636.727 641.219 636.569 640.817 636.405 640.403C635.206 637.331 634.194 634.26 633.152 631.117C584.997 631.117 536.842 631.117 487.228 631.117C486.298 633.923 486.298 633.923 485.349 636.786C484.287 639.587 483.151 642.357 482.022 645.131C481.733 645.848 481.444 646.565 481.147 647.304C479.731 650.794 478.268 654.247 476.676 657.66C474.395 662.573 472.35 667.579 470.297 672.592C469.6 674.296 468.9 675.999 468.2 677.701C466.244 682.46 464.293 687.221 462.346 691.983C461.835 693.234 461.323 694.485 460.81 695.735C460.206 697.212 459.603 698.689 459.002 700.167C457.312 704.295 455.509 708.354 453.633 712.4C452.579 714.701 451.608 717.026 450.668 719.376C450.304 720.276 449.94 721.176 449.575 722.075C449.387 722.539 449.199 723.003 449.005 723.48C447.894 726.201 446.756 728.909 445.619 731.619C445.286 732.413 445.286 732.413 444.946 733.222C444.427 734.459 443.907 735.696 443.388 736.933C443.794 736.995 444.2 737.057 444.618 737.12C447.144 737.709 449.476 738.649 451.882 739.61C452.342 739.791 452.803 739.972 453.277 740.159C456.593 741.47 459.882 742.842 463.168 744.225C465.609 745.248 468.055 746.26 470.501 747.27C470.955 747.457 471.408 747.644 471.874 747.837C473.747 748.61 475.619 749.383 477.491 750.155C482.436 752.194 487.371 754.236 492.238 756.459C492.238 760.2 492.238 763.942 492.238 767.797C453.383 767.797 414.528 767.797 374.496 767.797C374.496 764.055 374.496 760.314 374.496 756.459C391.929 749.496 391.929 749.496 399.122 747.01C401.91 746.041 404.646 744.983 407.376 743.862C411.617 742.128 415.907 740.579 420.232 739.072C420.617 738.932 421.002 738.792 421.398 738.648C422.72 738.193 422.72 738.193 423.972 737.864C425.819 737.321 427.279 736.866 428.513 735.329C429.169 734.067 429.693 732.802 430.196 731.471C430.398 730.982 430.6 730.493 430.808 729.989C431.469 728.373 432.105 726.749 432.741 725.124C433.204 723.98 433.668 722.838 434.134 721.696C435.095 719.333 436.046 716.966 436.988 714.596C438.273 711.365 439.581 708.143 440.9 704.926C441.309 703.928 441.717 702.93 442.126 701.932C442.429 701.194 442.429 701.194 442.737 700.441C443.355 698.93 443.97 697.417 444.584 695.904C447.68 688.279 450.827 680.676 453.995 673.081C457.873 663.786 461.731 654.484 465.565 645.17C468.217 638.726 470.876 632.285 473.55 625.849C474.651 623.196 475.753 620.543 476.855 617.89C477.124 617.243 477.392 616.596 477.669 615.929C480.927 608.079 484.142 600.218 487.248 592.306C488.718 588.576 490.305 584.94 492.018 581.316C493.712 577.619 495.144 573.809 496.622 570.02C499.105 563.67 501.602 557.367 504.499 551.194C506.2 547.455 507.655 543.613 509.148 539.787C511.63 533.437 514.128 527.133 517.025 520.96C518.725 517.221 520.181 513.38 521.673 509.554C524.156 503.204 526.653 496.9 529.551 490.727C531.251 486.988 532.706 483.147 534.199 479.321C538.937 467.201 538.937 467.201 541.049 462.747C543.112 458.378 544.797 453.87 546.527 449.358C548.003 445.53 549.6 441.808 551.363 438.104C552.75 434.986 553.958 431.804 555.18 428.617C556.896 424.138 558.696 419.76 560.758 415.429C562.145 412.311 563.352 409.129 564.574 405.942C566.032 402.139 567.482 398.363 569.232 394.683C570.981 390.993 572.476 387.224 573.968 383.424C576.605 376.719 579.351 370.065 582.149 363.426C582.346 362.959 582.542 362.492 582.744 362.01C583.302 360.684 583.861 359.358 584.422 358.033C584.591 357.632 584.759 357.23 584.933 356.817C586.402 353.36 586.402 353.36 588.923 353.287ZM563.008 444.048C559.15 453.345 555.324 462.648 551.701 472.04C550.363 475.508 548.986 478.953 547.544 482.379C546.196 485.637 544.906 488.919 543.612 492.199C542.255 495.629 540.857 499.04 539.442 502.445C538.511 504.689 537.588 506.937 536.668 509.185C536.499 509.596 536.331 510.007 536.158 510.43C535.622 511.739 535.087 513.048 534.551 514.357C533.773 516.26 532.994 518.164 532.215 520.067C532.017 520.551 531.819 521.036 531.615 521.535C530.25 524.87 528.882 528.204 527.513 531.538C523.98 540.143 520.466 548.754 517.042 557.404C514.951 562.685 512.824 567.949 510.687 573.211C508.982 577.413 507.282 581.616 505.591 585.824C504.984 587.333 504.376 588.842 503.769 590.351C503.364 591.359 502.959 592.367 502.553 593.375C499.75 600.345 496.914 607.3 493.987 614.219C493.753 614.777 493.519 615.335 493.278 615.909C493.075 616.388 492.873 616.866 492.664 617.359C492.166 618.51 492.166 618.51 492.238 619.779C537.293 619.779 582.348 619.779 628.768 619.779C627.627 615.569 626.543 611.658 624.942 607.657C624.762 607.197 624.582 606.738 624.396 606.264C624.016 605.294 623.634 604.325 623.251 603.357C622.254 600.835 621.268 598.308 620.284 595.781C620.093 595.289 619.901 594.797 619.704 594.29C618.073 590.086 616.563 585.847 615.117 581.575C614.103 578.59 613.006 575.657 611.82 572.737C610.525 569.548 609.335 566.346 608.218 563.092C606.723 558.743 605.087 554.459 603.404 550.18C601.551 545.471 599.785 540.75 598.142 535.964C597.155 533.109 596.084 530.303 594.949 527.505C593.439 523.77 592.078 520.005 590.766 516.197C589.622 512.903 588.393 509.65 587.12 506.405C585.715 502.819 584.379 499.222 583.128 495.579C581.426 490.631 579.526 485.769 577.611 480.901C576.221 477.352 574.89 473.794 573.655 470.188C570.628 461.36 567.09 452.714 563.635 444.048C563.428 444.048 563.221 444.048 563.008 444.048Z" fill="white"/>
<path d="M240.488 467.98C254.284 467.928 268.079 467.877 282.293 467.823C286.626 467.8 290.958 467.777 295.422 467.753C300.772 467.742 300.772 467.742 303.288 467.74C305.021 467.738 306.753 467.728 308.485 467.714C321.101 467.618 332.868 468.302 344.883 472.547C345.695 472.829 345.695 472.829 346.525 473.117C359.07 477.588 370.161 484.305 380.15 493.175C380.469 493.454 380.787 493.733 381.115 494.02C406.504 516.359 416.822 548.767 419.475 581.844C419.686 585.108 419.721 588.367 419.734 591.637C419.737 592.358 419.741 593.079 419.744 593.822C419.75 595.341 419.754 596.861 419.757 598.381C419.763 600.65 419.782 602.919 419.802 605.188C419.975 643.373 407.969 680.834 381.628 708.895C380.417 710.191 379.275 711.505 378.154 712.878C376.512 714.831 374.68 716.469 372.742 718.121C371.313 719.355 369.943 720.641 368.564 721.932C338.312 749.291 297.29 763.127 257.398 767.164C256.779 767.229 256.159 767.294 255.521 767.36C213.273 771.595 168.679 767.592 129.636 750.158C129.084 749.913 128.533 749.668 127.966 749.415C111.726 742.112 97.1786 732.451 83.9167 720.554C83.3588 720.063 82.8009 719.572 82.2262 719.066C75.9762 713.51 70.2616 707.643 65.1281 701.029C64.8162 700.634 64.5044 700.239 64.1831 699.832C59.3955 693.767 55.0927 687.641 51.3497 680.873C51.1039 680.44 50.8581 680.008 50.6048 679.562C40.772 662.194 35.3832 643.246 32.5611 623.556C32.4497 622.801 32.4497 622.801 32.3361 622.031C27.6979 589.032 31.8531 549.928 51.8335 522.41C53.515 520.09 53.515 520.09 53.5931 517.331C52.4348 515.599 51.1781 514.133 49.7449 512.622C47.5914 510.304 45.5348 507.973 43.5603 505.496C40.958 502.251 38.1954 499.197 35.3672 496.152C29.8043 490.002 31.3086 490.811 31.3086 479.948C69.3367 479.948 107.365 479.948 146.545 479.948C146.545 483.481 146.545 487.015 146.545 490.655C142.606 492.751 138.566 494.391 134.402 495.982C132.253 496.803 130.108 497.634 127.962 498.465C127.499 498.644 127.035 498.823 126.558 499.008C119.521 501.733 112.515 504.536 105.508 507.335C100.344 509.398 95.1777 511.453 89.991 513.457C87.7841 514.31 85.5794 515.169 83.3748 516.028C82.337 516.43 81.298 516.829 80.2578 517.226C78.8209 517.773 77.3882 518.331 75.956 518.891C75.3277 519.125 75.3277 519.125 74.6867 519.365C65.9406 522.832 60.507 534.933 56.36 542.934C56.1421 543.352 55.9241 543.769 55.6995 544.2C42.514 569.843 39.2024 602.192 47.592 629.854C56.8763 657.945 77.8705 678.933 103.723 692.25C126.577 703.623 152.197 708.043 177.516 708.059C178.667 708.062 179.818 708.065 180.969 708.068C184.08 708.076 187.19 708.08 190.3 708.083C192.252 708.085 194.204 708.088 196.157 708.09C202.292 708.099 208.426 708.105 214.561 708.108C221.593 708.11 228.624 708.121 235.655 708.14C241.122 708.153 246.588 708.16 252.055 708.161C255.304 708.161 258.554 708.165 261.803 708.176C305.18 708.32 348.292 701.28 380.777 670.165C381.226 669.747 381.676 669.328 382.139 668.896C398.563 653.139 407.155 629.633 407.844 607.135C408.278 584.785 403.129 564.109 387.729 547.387C359.974 519.889 321.217 520.3 284.963 519.924C281.919 519.892 278.874 519.857 275.829 519.822C269.894 519.755 263.959 519.691 258.024 519.629C257.916 520.451 257.807 521.273 257.695 522.12C256.504 531.042 255.195 539.942 253.836 548.839C253.633 550.171 253.431 551.504 253.228 552.837C252.74 556.045 252.251 559.252 251.762 562.459C248.041 562.459 244.321 562.459 240.488 562.459C240.488 531.281 240.488 500.103 240.488 467.98Z" fill="white"/>
</svg>
