<svg width="74" height="73" viewBox="0 0 74 73" fill="none" xmlns="http://www.w3.org/2000/svg">
<path d="M36.4619 0C44.2073 3.56015e-05 51.3916 2.41639 57.2979 6.53613L58.1182 7.1084L56.9736 8.74805L56.1533 8.17676C50.5718 4.28353 43.785 2.00004 36.4619 2C17.4293 2 2.00007 17.4293 2 36.4619C2.00009 55.4945 17.4293 70.9238 36.4619 70.9238C55.4945 70.9237 70.9237 55.4945 70.9238 36.4619C70.9238 34.2161 70.7085 32.021 70.2988 29.8965L70.1094 28.915L72.0732 28.5361L72.2627 29.5176C72.6964 31.7663 72.9238 34.0883 72.9238 36.4619C72.9237 56.599 56.599 72.9237 36.4619 72.9238C16.3247 72.9238 9.25153e-05 56.5991 0 36.4619C6.59727e-05 16.3247 16.3247 0 36.4619 0ZM73.3369 11.1328L72.6289 11.8398L37.168 47.3018L36.4609 48.0088L35.7529 47.3018L20.5557 32.1035L19.8486 31.3965L21.2627 29.9824L36.46 45.1797L71.2148 10.4258L71.9219 9.71875L73.3369 11.1328Z" fill="#020202"/>
</svg>
