<?xml version="1.0"?>
<svg xmlns="http://www.w3.org/2000/svg" viewBox="0 0 24 24" width="24" height="24" aria-hidden="true">
	<!-- Outer bubble: white -->
	<path fill="#fff" d="M19.077 4.928C17.191 3.041 14.683 2.001 12.011 2c-5.506 0-9.987 4.479-9.989 9.985-.001 1.76.459 3.478 1.333 4.992L2 22l5.233-1.237c1.459.796 3.101 1.215 4.773 1.216h.004c5.505 0 9.986-4.48 9.989-9.985.002-2.672-1.036-5.181-2.922-7.068z"/>
	<!-- Phone glyph: black / currentColor to allow CSS control if needed -->
	<path fill="#000" d="M16.898 15.554c-.208.583-1.227 1.145-1.685 1.186-.458.042-.887.207-2.995-.624-2.537-1-4.139-3.601-4.263-3.767-.125-.167-1.019-1.353-1.019-2.581s.229-1.94.458-2.189c.229-.25.499-.312.666-.312.166 0 .333 0 .478.006.178.007.375.016.562.431.222.494.707 1.728.769 1.853s.104.271.021.437-.125.27-.249.416c-.125.146-.262.325-.374.437-.125.124-.255.26-.11.509.146.25.646 1.067 1.388 1.728.954.85 1.757 1.113 2.007 1.239.25.125.395.104.541-.063.146-.166.624-.728.79-.978s.333-.208.562-.125 1.456.687 1.705.812c.25.125.416.187.478.291.146.416.146.916-.062 1.499z"/>
</svg>